<svg version="1.1" xmlns="http://www.w3.org/2000/svg" style="display: block;" viewBox="0 0 2048 2048" width="1254" height="1254" preserveAspectRatio="none">
<defs>
	<linearGradient id="Gradient1" gradientUnits="userSpaceOnUse" x1="1291.03" y1="869.956" x2="1464.65" y2="1122.31">
		<stop class="stop0" offset="0" stop-opacity="1" stop-color="rgb(10,179,209)"/>
		<stop class="stop1" offset="1" stop-opacity="1" stop-color="rgb(21,113,255)"/>
	</linearGradient>
	<linearGradient id="Gradient2" gradientUnits="userSpaceOnUse" x1="634.58" y1="699.681" x2="678.848" y2="1140.58">
		<stop class="stop0" offset="0" stop-opacity="1" stop-color="rgb(56,208,112)"/>
		<stop class="stop1" offset="1" stop-opacity="1" stop-color="rgb(3,185,208)"/>
	</linearGradient>
	<linearGradient id="Gradient3" gradientUnits="userSpaceOnUse" x1="544.903" y1="214.277" x2="856.796" y2="649.279">
		<stop class="stop0" offset="0" stop-opacity="1" stop-color="rgb(162,232,4)"/>
		<stop class="stop1" offset="1" stop-opacity="1" stop-color="rgb(72,209,102)"/>
	</linearGradient>
	<linearGradient id="Gradient4" gradientUnits="userSpaceOnUse" x1="1190.46" y1="464.574" x2="1452.12" y2="714.996">
		<stop class="stop0" offset="0" stop-opacity="1" stop-color="rgb(47,210,135)"/>
		<stop class="stop1" offset="1" stop-opacity="1" stop-color="rgb(7,186,203)"/>
	</linearGradient>
	<linearGradient id="Gradient5" gradientUnits="userSpaceOnUse" x1="463.639" y1="1061.17" x2="813.917" y2="1576.55">
		<stop class="stop0" offset="0" stop-opacity="1" stop-color="rgb(4,198,194)"/>
		<stop class="stop1" offset="1" stop-opacity="0.988235" stop-color="rgb(1,115,255)"/>
	</linearGradient>
	<linearGradient id="Gradient6" gradientUnits="userSpaceOnUse" x1="1070.8" y1="1080.97" x2="1188.31" y2="1279.34">
		<stop class="stop0" offset="0" stop-opacity="1" stop-color="rgb(9,160,233)"/>
		<stop class="stop1" offset="1" stop-opacity="1" stop-color="rgb(19,111,251)"/>
	</linearGradient>
	<linearGradient id="Gradient7" gradientUnits="userSpaceOnUse" x1="1689.16" y1="1635.41" x2="1361.28" y2="1144.25">
		<stop class="stop0" offset="0" stop-opacity="1" stop-color="rgb(82,5,255)"/>
		<stop class="stop1" offset="1" stop-opacity="1" stop-color="rgb(20,112,252)"/>
	</linearGradient>
</defs>
<path transform="translate(0,0)" fill="url(#Gradient7)" d="M 1597.08 1026.42 L 1648.65 1059.74 C 1678.96 1079.22 1708.28 1094.88 1715.59 1133.86 C 1718.54 1149.59 1717.52 1185.81 1717.56 1202.79 L 1717.54 1337.5 L 1717.82 1502.99 C 1717.84 1518.87 1718.17 1535 1717.86 1550.9 C 1717.48 1569.73 1719.91 1590.1 1712.75 1607.92 C 1703.82 1630.17 1687.67 1637.19 1669.28 1649.69 L 1618.01 1685.13 L 1552.26 1729.83 C 1536.6 1740.6 1516.47 1755.02 1499.95 1764.4 C 1499.37 1727.15 1499.23 1689.9 1499.53 1652.65 C 1499.61 1630.89 1501.46 1606.9 1497.56 1585.64 C 1494.58 1569.41 1470.01 1557.15 1457.17 1548.65 L 1381.79 1499.13 L 1216.1 1391.22 C 1191.44 1374.96 1166.69 1358.86 1141.82 1342.93 C 1132.87 1337.17 1121.64 1329.06 1112.82 1323.91 C 1052.65 1289.25 1061.76 1262.14 1061.68 1199.46 C 1061.37 1160.04 1061.55 1120.62 1062.24 1081.2 C 1128.18 1120.93 1192.1 1166.34 1257.36 1207.36 C 1261.06 1209.69 1267.2 1213.27 1270.1 1216.29 C 1274.74 1218.33 1288.25 1227.48 1293.24 1230.72 L 1341.45 1262.16 C 1406.15 1304.26 1472.99 1350.17 1537.91 1390.67 C 1537.23 1379.35 1537.95 1364.18 1537.92 1352.32 C 1537.67 1327.85 1537.57 1303.38 1537.62 1278.9 C 1537.68 1263.79 1540.68 1223.38 1528.22 1213.96 C 1497.09 1190.41 1462.62 1169.66 1430.05 1147.78 C 1431.65 1136.27 1431.75 1140.38 1439.34 1133.63 C 1448.7 1125.3 1459.37 1118.38 1468.91 1110.52 C 1476.35 1103.75 1486.29 1091.57 1494.97 1086.87 C 1512.47 1077.34 1512.5 1085.65 1522.13 1066.73 C 1524.49 1062.08 1567.63 1051.95 1573.45 1042.45 C 1575.82 1038.59 1587.86 1034.47 1591.76 1034 L 1593.16 1033.84 C 1596.56 1031.06 1595.56 1031.52 1597.08 1026.42 z"/>
<path transform="translate(0,0)" fill="url(#Gradient6)" d="M 1062.24 1081.2 C 1128.18 1120.93 1192.1 1166.34 1257.36 1207.36 C 1261.06 1209.69 1267.2 1213.27 1270.1 1216.29 C 1271.86 1219.14 1274.15 1221.59 1273.98 1224.34 C 1264.08 1231.93 1201.71 1266.07 1191.19 1268.24 L 1187.59 1274.98 C 1166.77 1285.04 1162.91 1289.76 1145.06 1301.43 C 1144.93 1303.91 1144.96 1303.03 1145.98 1305.58 C 1140.52 1307.44 1129.82 1305.81 1124.6 1306.42 C 1118.41 1307.15 1119.98 1315.99 1111.57 1312.03 L 1110.61 1312.65 C 1112.39 1315.35 1113.15 1316.28 1114.27 1319.39 C 1113.75 1321.59 1113.88 1322.02 1112.82 1323.91 C 1052.65 1289.25 1061.76 1262.14 1061.68 1199.46 C 1061.37 1160.04 1061.55 1120.62 1062.24 1081.2 z"/>
<path transform="translate(0,0)" fill="url(#Gradient5)" d="M 328.421 1185.59 C 330.486 1179.21 329.387 1161.84 330.715 1153.18 C 332.538 1157.19 329.574 1167.53 331.927 1171.7 L 334.45 1168.68 C 334.982 1171.11 335.397 1172.58 336.151 1174.95 C 337.147 1173.78 337.606 1173.15 338.14 1171.74 C 337.885 1165.43 350.375 1159.94 350.588 1159.46 C 355.699 1147.97 357.073 1149.89 367.669 1144.59 C 370.934 1142.96 376.026 1131.74 380.826 1128.59 C 396.919 1115.85 417.714 1110.7 434.765 1102.6 C 451.946 1094.44 441.438 1094.11 464.882 1090.06 C 475.634 1088.21 492.216 1072.16 508.854 1073.78 C 521.579 1075.02 529.959 1079.11 542.286 1081 C 556.038 1082.21 566.308 1077.49 577.657 1076.3 C 602.211 1075.05 617.783 1073.45 641.805 1067.43 C 655.681 1063.95 694.003 1066.78 709.441 1066.08 C 714.096 1065.87 727.31 1067.02 730.063 1069.08 L 730.301 1068.42 L 730.761 1070.93 C 729.15 1073.34 728.242 1074.97 726.857 1077.48 C 673.411 1112.14 620.302 1147.32 567.539 1183.01 C 511.931 1220.22 508.085 1205.61 508.82 1278.31 C 509.153 1311.24 510.407 1358.22 508.574 1390.63 C 541.498 1369.97 577.21 1344.92 610.154 1323.44 L 836.742 1175.47 L 922.71 1119.5 C 933.823 1112.21 973.646 1085.99 984.061 1081.6 C 986.052 1132.92 983.532 1185.51 984.728 1236.97 C 986.287 1304.01 953.841 1309.22 905.073 1342.75 C 820.5 1398.82 734.431 1454.1 649.547 1510.47 C 628.927 1524.24 608.198 1537.85 587.363 1551.29 C 560.329 1569.08 545.832 1573.2 546.473 1609.95 C 546.724 1624.33 546.561 1640.97 546.625 1655.51 L 546.474 1724.46 C 546.448 1737.37 546.967 1752.23 546.292 1764.93 C 533.553 1757.4 519.681 1747.42 507.276 1739.01 L 446.054 1697.79 L 385.335 1656.79 C 327.229 1617 327.876 1617.3 328.035 1547.81 L 328.128 1476.01 L 328.421 1185.59 z"/>
<path transform="translate(0,0)" fill="url(#Gradient4)" d="M 1532.58 231.8 C 1535.48 247.12 1534.6 270.877 1534.84 287.9 C 1536.29 390.532 1515.95 511.054 1437.04 583.961 C 1424.38 595.657 1398.33 610.681 1383.43 620.302 L 1295.69 676.923 C 1261.61 698.742 1247.59 702.358 1249.84 748.483 C 1251.02 772.788 1244.7 798.539 1268.74 814.338 C 1279.83 822.632 1313.13 839.389 1321.26 848.069 L 1321.39 851.63 C 1317.66 855.279 1314.07 855.465 1309 859.947 C 1292.42 874.623 1271.19 884.287 1254.24 897.823 C 1251.56 899.957 1250.75 902.623 1247.13 904.656 L 1245.81 902.38 C 1224.08 918.091 1200.42 936.133 1186.35 958.01 C 1183.24 962.834 1163 964.275 1163.95 971.53 L 1162.82 971.633 L 1163.43 970.773 L 1161.74 971.59 L 1160.2 971.455 C 1152.52 967.288 1136.65 956.414 1128.91 951.293 C 1117.94 944.035 1100.38 933.444 1090.57 925.754 C 1085.25 921.612 1080.43 916.849 1076.23 911.567 C 1058.89 889.422 1062.04 865.967 1062.04 839.641 L 1062.1 762.987 L 1062.04 665.143 C 1062.04 650.052 1061.31 623.625 1062.94 609.485 C 1061.02 592.338 1074.44 546.094 1080.85 528.234 C 1106.41 448.528 1165.93 412.891 1234.54 374.352 C 1261.05 359.459 1291.81 337.489 1319.82 324.345 C 1366.38 297.785 1414.96 274.958 1465.13 256.077 C 1487.02 247.594 1511.4 240.249 1532.58 231.8 z"/>
<path transform="translate(0,0)" fill="rgb(58,207,122)" d="M 1062.94 609.485 C 1061.02 592.338 1074.44 546.094 1080.85 528.234 C 1106.41 448.528 1165.93 412.891 1234.54 374.352 C 1261.05 359.459 1291.81 337.489 1319.82 324.345 L 1324.05 324.921 L 1324.33 326.063 L 1320.55 330.716 L 1321 331.897 C 1325.17 332.114 1325.33 331.407 1328.01 333.474 C 1328.62 341.453 1318.68 350.32 1312.4 354.258 C 1308.23 361.33 1310.62 368.741 1307.29 372.151 C 1300.12 379.483 1290.39 390.987 1282.5 397.428 C 1280.33 399.199 1269.98 403.91 1267.69 405.89 C 1265.8 407.523 1262.66 416.198 1261.26 417.577 C 1253.65 425.073 1227.34 460.152 1220.33 465.137 L 1218.57 464.55 L 1217.22 465.901 L 1217.69 468.97 L 1216.77 469.495 L 1215.61 468.281 C 1198.32 480.518 1189.39 500.14 1174.12 514.153 C 1166.7 520.966 1157.44 522.473 1148.92 530.542 C 1137.17 541.652 1140.1 565.68 1123.46 566.553 C 1119.82 570.744 1120.29 571.255 1119.64 577.111 C 1112.73 585.097 1108.04 584.517 1100.62 594.183 C 1092.36 604.949 1087.27 617.132 1079.48 627.297 C 1072.38 636.574 1074.75 625.353 1064.41 639.361 C 1063.97 631.318 1065.48 614.675 1062.94 609.485 z"/>
<path transform="translate(0,0)" fill="url(#Gradient3)" d="M 514.242 232.517 C 574.4 251.328 640.524 277.817 696.562 306.806 C 759.97 339.607 823.257 381.141 884.013 418.838 C 928.86 446.664 967.731 515.636 977.208 567.396 C 982.863 583.499 984.907 621.849 984.693 639.881 C 979.358 647.573 985.149 656.117 982.709 664.669 C 982.705 664.684 978.711 666.092 978.684 666.12 C 974.173 670.728 969.996 679.761 964.107 682.451 C 955.237 686.502 945.32 691.895 936.148 695.232 C 929.751 697.559 921.858 698.841 915.301 701.251 C 894.561 708.874 874.367 715.093 853.739 723.375 C 838.155 729.633 822.152 739.407 806.154 744.417 C 803.109 745.37 802.404 744.401 800.44 742.976 C 797.876 736.305 800.578 732.527 798.318 728.422 L 797.265 728.248 C 794.103 713.444 792.566 707.19 781.799 695.782 C 760.101 683.558 725.589 660.35 704 645.951 C 669.378 620.753 619.846 598.27 592.152 565.893 C 515.895 476.738 506.911 341.776 514.242 232.517 z"/>
<path transform="translate(0,0)" fill="rgb(58,207,122)" d="M 774.205 684.793 C 777.374 681.795 788.902 668.259 788.761 668.314 C 802.621 662.856 819.23 657.843 833.655 653.162 C 837.233 652.002 840.057 646.435 843.207 644.572 C 849.44 640.885 857.163 638.805 863.277 634.967 C 864.076 634.466 866.569 630.347 867.133 630.089 C 872.363 627.705 877.767 625.564 882.751 622.64 C 900.644 612.14 916.757 601.809 933.512 589.61 C 938.095 586.274 949.852 577.593 954.644 577.659 C 955.032 577.644 955.42 577.629 955.809 577.613 C 961.875 578.37 969.185 564.923 973.462 558.684 C 975.279 562.192 973.56 562.229 977.208 567.396 C 982.863 583.499 984.907 621.849 984.693 639.881 C 979.358 647.573 985.149 656.117 982.709 664.669 C 982.705 664.684 978.711 666.092 978.684 666.12 C 974.173 670.728 969.996 679.761 964.107 682.451 C 955.237 686.502 945.32 691.895 936.148 695.232 C 929.751 697.559 921.858 698.841 915.301 701.251 C 894.561 708.874 874.367 715.093 853.739 723.375 C 838.155 729.633 822.152 739.407 806.154 744.417 C 803.109 745.37 802.404 744.401 800.44 742.976 C 797.876 736.305 800.578 732.527 798.318 728.422 L 797.265 728.248 C 794.103 713.444 792.566 707.19 781.799 695.782 C 780.872 693.717 776.462 688.67 774.205 684.793 z"/>
<path transform="translate(0,0)" fill="url(#Gradient2)" d="M 797.265 728.248 L 798.318 728.422 C 800.578 732.527 797.876 736.305 800.44 742.976 C 802.404 744.401 803.109 745.37 806.154 744.417 C 822.152 739.407 838.155 729.633 853.739 723.375 C 874.367 715.093 894.561 708.874 915.301 701.251 C 921.858 698.841 929.751 697.559 936.148 695.232 C 945.32 691.895 955.237 686.502 964.107 682.451 C 969.996 679.761 974.173 670.728 978.684 666.12 C 978.711 666.092 982.705 664.684 982.709 664.669 C 985.149 656.117 979.358 647.573 984.693 639.881 L 984.818 793.64 C 984.818 809.052 983.776 831.04 984.785 845.947 C 989.618 917.347 954.329 928.732 899.664 964.754 L 775.854 1045.78 C 760.516 1055.82 741.578 1067.28 726.857 1077.48 C 728.242 1074.97 729.15 1073.34 730.761 1070.93 L 730.301 1068.42 L 730.063 1069.08 C 727.31 1067.02 714.096 1065.87 709.441 1066.08 C 694.003 1066.78 655.681 1063.95 641.805 1067.43 C 617.783 1073.45 602.211 1075.05 577.657 1076.3 C 566.308 1077.49 556.038 1082.21 542.286 1081 C 529.959 1079.11 521.579 1075.02 508.854 1073.78 C 492.216 1072.16 475.634 1088.21 464.882 1090.06 C 441.438 1094.11 451.946 1094.44 434.765 1102.6 C 417.714 1110.7 396.919 1115.85 380.826 1128.59 C 376.026 1131.74 370.934 1142.96 367.669 1144.59 C 357.073 1149.89 355.699 1147.97 350.588 1159.46 C 350.375 1159.94 337.885 1165.43 338.14 1171.74 C 337.606 1173.15 337.147 1173.78 336.151 1174.95 C 335.397 1172.58 334.982 1171.11 334.45 1168.68 L 331.927 1171.7 C 329.574 1167.53 332.538 1157.19 330.715 1153.18 C 329.387 1161.84 330.486 1179.21 328.421 1185.59 C 328.163 1154.08 326.986 1119.24 349.366 1093.68 C 359.159 1082.5 376.547 1072.99 389.092 1064.72 C 405.018 1054.14 421.003 1043.64 437.048 1033.24 L 674.158 879.499 L 742.499 835.786 C 754.125 828.342 785.328 810.763 791.924 798.652 C 801.009 781.971 795.343 749.667 797.093 730.02 L 797.265 728.248 z"/>
<path transform="translate(0,0)" fill="url(#Gradient1)" d="M 1321.26 848.069 C 1339.67 859.034 1358.96 871.643 1376.87 883.469 C 1449.72 931.557 1524.93 977.392 1597.08 1026.42 C 1595.56 1031.52 1596.56 1031.06 1593.16 1033.84 L 1591.76 1034 C 1587.86 1034.47 1575.82 1038.59 1573.45 1042.45 C 1567.63 1051.95 1524.49 1062.08 1522.13 1066.73 C 1512.5 1085.65 1512.47 1077.34 1494.97 1086.87 C 1486.29 1091.57 1476.35 1103.75 1468.91 1110.52 C 1459.37 1118.38 1448.7 1125.3 1439.34 1133.63 C 1431.75 1140.38 1431.65 1136.27 1430.05 1147.78 L 1253.58 1033.26 C 1225.39 1014.87 1186.58 990.996 1160.2 971.455 L 1161.74 971.59 L 1163.43 970.773 L 1162.82 971.633 L 1163.95 971.53 C 1163 964.275 1183.24 962.834 1186.35 958.01 C 1200.42 936.133 1224.08 918.091 1245.81 902.38 L 1247.13 904.656 C 1250.75 902.623 1251.56 899.957 1254.24 897.823 C 1271.19 884.287 1292.42 874.623 1309 859.947 C 1314.07 855.465 1317.66 855.279 1321.39 851.63 L 1321.26 848.069 z"/>
</svg>